<svg width="1000" height="1000" viewBox="0 0 1000 1000" fill="none" xmlns="http://www.w3.org/2000/svg">
<rect width="1000" height="1000" rx="500" fill="white"/>
<path d="M286.428 250H713.365L717.424 378.413H699.343C690.487 338.069 679.171 311.87 665.395 299.815C651.865 287.515 623.205 281.365 579.417 281.365H537.351V668.081C537.351 697.355 541.902 715.56 551.004 722.694C560.106 729.582 580.032 734.133 610.782 736.347V750H390.487V736.347C422.467 733.887 442.394 728.598 450.266 720.48C458.138 712.362 462.074 691.943 462.074 659.225V281.365H420.007C378.187 281.365 349.651 287.392 334.399 299.446C319.392 311.501 308.076 337.823 300.45 378.413H282L286.428 250ZM381.631 478.413H617.793V518.635H381.631V478.413Z" fill="black"/>
</svg>
